<?xml version="1.0" standalone="no"?>
<!DOCTYPE svg PUBLIC "-//W3C//DTD SVG 20010904//EN"
 "http://www.w3.org/TR/2001/REC-SVG-20010904/DTD/svg10.dtd">
<svg version="1.0" xmlns="http://www.w3.org/2000/svg"
 width="1166.000000pt" height="297.000000pt" viewBox="0 0 1166.000000 297.000000"
 preserveAspectRatio="xMidYMid meet">

<g transform="translate(0.000000,297.000000) scale(0.100000,-0.100000)"
fill="#000000" stroke="none">
<path d="M6365 2935 c-24 -23 -25 -28 -25 -179 l0 -156 -45 34 c-80 62 -193
69 -288 18 -94 -50 -140 -145 -140 -292 -1 -117 18 -180 76 -246 55 -63 103
-84 195 -84 80 0 135 21 178 67 24 25 24 26 24 4 0 -39 43 -71 95 -71 35 0 52
6 70 25 l25 24 0 416 0 416 -25 24 c-34 35 -106 35 -140 0z m-98 -415 c49 -30
68 -73 68 -160 0 -57 -5 -85 -21 -114 -50 -96 -180 -98 -231 -3 -23 42 -25
179 -3 222 35 68 123 94 187 55z"/>
<path d="M6655 2935 c-17 -16 -25 -35 -25 -57 0 -49 332 -785 371 -820 32 -31
87 -37 132 -17 33 15 42 32 226 442 171 381 182 416 141 457 -29 29 -103 28
-133 -2 -12 -13 -81 -159 -152 -325 -72 -167 -132 -303 -135 -303 -3 0 -63
136 -135 303 -71 166 -140 312 -152 325 -32 32 -105 31 -138 -3z"/>
<path d="M3742 2943 c-7 -3 -19 -18 -27 -33 -13 -24 -15 -95 -15 -420 l0 -392
29 -29 29 -29 264 0 c264 0 265 0 286 23 33 35 30 99 -4 126 -25 20 -40 21
-215 21 l-188 0 -3 351 -3 351 -24 19 c-22 18 -96 25 -129 12z"/>
<path d="M9099 2851 c-21 -16 -25 -31 -29 -98 l-5 -78 -45 -3 c-57 -4 -80 -25
-80 -72 0 -50 24 -70 83 -70 l47 0 0 -152 c0 -84 5 -169 10 -189 17 -61 52
-102 109 -131 47 -24 67 -28 137 -28 46 0 94 5 107 11 30 13 47 48 47 92 0 51
-9 57 -82 55 -119 -3 -141 33 -136 224 l3 113 80 3 c94 3 115 17 115 72 0 55
-21 69 -115 72 l-80 3 -5 78 c-6 94 -25 117 -95 117 -27 0 -51 -7 -66 -19z"/>
<path d="M1746 2724 c-12 -31 -6 -53 23 -85 16 -17 42 -54 58 -83 l28 -51 -5
-500 c-9 -877 -6 -1316 7 -1354 13 -33 13 -33 -9 -19 -12 8 -27 28 -33 44 -7
19 -10 324 -10 920 l0 891 -26 39 c-15 21 -29 46 -33 54 -3 8 -3 -3 1 -25 3
-22 10 -48 14 -57 15 -28 11 -288 -3 -289 -279 -11 -337 -18 -476 -55 -91 -24
-146 -43 -152 -54 -12 -22 -30 -318 -30 -493 l0 -149 -42 8 c-69 11 -288 7
-304 -7 -8 -6 -14 -24 -14 -40 l0 -29 -82 0 -83 0 -81 -60 c-93 -68 -86 -50
-100 -263 -7 -95 -7 -97 -33 -103 -53 -11 -58 -15 -33 -27 26 -12 27 -23 6
-88 -24 -72 -46 -83 -174 -89 l-105 -5 125 -29 c69 -15 163 -37 210 -47 208
-47 882 -180 888 -175 3 3 -3 6 -13 6 -10 0 -16 2 -13 5 15 15 1259 -235 1413
-284 84 -27 61 -25 -141 9 -184 32 -236 35 -112 7 40 -9 152 -35 248 -57 725
-167 791 -180 924 -180 143 0 210 17 461 114 294 115 472 202 453 222 -3 2
-52 13 -109 23 -169 31 -280 64 -265 78 3 3 70 25 148 48 109 33 143 47 142
59 0 9 -1 79 -2 156 -2 117 -4 140 -17 140 -8 0 -31 32 -52 73 -31 61 -37 80
-34 125 4 66 -17 102 -58 102 -26 0 -29 3 -34 47 -4 27 -9 112 -13 191 -8 165
-17 185 -89 203 -24 6 -46 17 -49 25 -6 16 -62 19 -71 4 -10 -16 -91 -12 -105
5 -16 19 -59 19 -80 0 -13 -12 -62 -17 -211 -25 -107 -5 -233 -10 -281 -10
l-87 0 -3 108 -3 107 -35 3 c-53 5 -63 18 -44 56 9 17 23 39 32 49 8 9 12 20
9 24 -4 3 -7 1 -7 -5 0 -7 -4 -12 -10 -12 -5 0 -7 8 -4 18 5 14 4 15 -5 2 -6
-8 -11 -20 -11 -27 0 -6 -5 -24 -10 -39 l-11 -27 -42 39 c-60 57 -119 93 -177
106 -28 6 -50 16 -50 21 0 5 -7 6 -16 3 -9 -4 -23 -1 -30 5 -7 6 -17 8 -23 5
-5 -3 -21 0 -35 8 -26 13 -26 14 -5 19 11 3 18 10 14 16 -3 6 -11 93 -16 193
-6 101 -12 195 -12 211 -2 25 -3 26 -15 10 -22 -30 -26 -65 -14 -123 7 -31 12
-111 12 -178 0 -119 -1 -122 -25 -138 -20 -13 -28 -14 -40 -4 -9 7 -28 10 -47
6 -21 -3 -40 0 -52 9 -17 13 -17 15 -4 15 9 0 20 5 24 11 10 17 -59 -1 -72
-18 -13 -19 -49 -13 -49 7 0 9 9 15 23 14 46 -2 -1 25 -63 36 -84 15 -91 18
-77 32 7 7 12 17 12 23 0 5 -9 -1 -19 -14 l-18 -23 -134 20 c-74 12 -156 24
-184 27 -92 12 -85 0 -85 153 0 76 -4 152 -9 170 -10 34 -131 232 -142 232 -4
0 -10 -7 -13 -16z m574 -609 c0 -12 -35 -75 -42 -75 -11 0 -10 4 9 45 14 29
33 47 33 30z m80 -40 c0 -19 -28 -26 -50 -13 -17 11 -17 13 -3 24 20 14 53 7
53 -11z m107 -192 c19 -25 30 -44 25 -42 -10 4 -85 94 -111 133 -22 33 47 -40
86 -91z m-427 -139 c0 -87 -1 -94 -20 -94 -19 0 -20 7 -20 94 0 66 4 96 13 99
23 8 27 -5 27 -99z m1133 -46 c6 -93 3 -113 -14 -103 -11 8 -12 195 0 195 4 0
11 -41 14 -92z m-75 -21 c1 -48 -1 -87 -6 -87 -9 0 -42 161 -35 173 3 4 12 7
21 5 14 -3 18 -19 20 -91z m-1144 -63 c3 -8 2 -12 -4 -9 -6 3 -10 10 -10 16 0
14 7 11 14 -7z m2048 -54 c10 -12 18 -31 18 -41 0 -18 -9 -19 -135 -19 -131 0
-135 -1 -140 -22 -9 -39 21 -658 33 -670 7 -7 63 -1 185 21 95 18 184 35 196
38 19 5 22 2 19 -18 -3 -22 -15 -26 -213 -66 -236 -48 -268 -50 -273 -15 -3
16 2 25 15 28 17 5 18 21 10 375 -9 393 -9 390 38 410 11 5 67 7 124 6 94 -4
106 -6 123 -27z m-2042 0 c0 -23 -25 -27 -33 -6 -4 9 1 17 11 19 9 3 18 5 20
6 1 0 2 -8 2 -19z m496 -32 c-44 -6 -86 -6 -115 0 -39 8 -30 10 69 10 115 -1
115 -1 46 -10z m118 -63 c-4 -8 -8 -15 -10 -15 -2 0 -4 7 -4 15 0 8 4 15 10
15 5 0 7 -7 4 -15z m-2 -57 c-7 -7 -12 -8 -12 -2 0 14 12 26 19 19 2 -3 -1
-11 -7 -17z m-129 -60 c3 -39 4 -75 1 -80 -3 -4 -23 -8 -45 -8 l-39 0 0 79 0
79 39 0 38 1 6 -71z m133 5 c-10 -10 -19 5 -10 18 6 11 8 11 12 0 2 -7 1 -15
-2 -18z m4 -43 c0 -5 -5 -10 -11 -10 -5 0 -7 5 -4 10 3 6 8 10 11 10 2 0 4 -4
4 -10z m-4 -67 c-10 -10 -19 5 -10 18 6 11 8 11 12 0 2 -7 1 -15 -2 -18z m-29
-75 c-2 -18 -4 -4 -4 32 0 36 2 50 4 33 2 -18 2 -48 0 -65z m-126 52 c28 0 30
-2 27 -32 -3 -31 -6 -33 -40 -34 -35 -1 -38 1 -38 25 0 14 3 37 7 51 6 19 8
21 11 8 2 -12 13 -18 33 -18z m19 26 c0 -3 -4 -8 -10 -11 -5 -3 -10 -1 -10 4
0 6 5 11 10 11 6 0 10 -2 10 -4z m137 -58 c-3 -8 -6 -5 -6 6 -1 11 2 17 5 13
3 -3 4 -12 1 -19z m7 -43 c-4 -8 -8 -15 -10 -15 -2 0 -4 7 -4 15 0 8 4 15 10
15 5 0 7 -7 4 -15z m-183 -71 l6 -39 2 43 c1 35 4 42 21 42 17 0 20 -7 20 -50
l0 -50 -37 2 c-38 3 -38 4 -41 52 -4 60 20 60 29 0z m1835 21 c7 -29 -2 -75
-15 -75 -13 0 -22 46 -15 75 3 14 10 25 15 25 5 0 11 -11 15 -25z m-1654 -7
c-7 -7 -12 -8 -12 -2 0 14 12 26 19 19 2 -3 -1 -11 -7 -17z m994 -49 c-9 -20
-15 -27 -16 -16 0 20 19 61 26 54 2 -2 -2 -19 -10 -38z m78 5 c11 -29 6 -81
-9 -94 -18 -15 -19 -9 -4 24 8 18 9 33 1 55 -11 31 0 45 12 15z m-3203 -132
c-7 -21 -5 -48 5 -84 7 -29 14 -54 14 -55 0 -11 -29 0 -34 13 -8 21 -8 159 1
168 14 14 22 -11 14 -42z m256 -29 c-10 -23 1 -109 20 -158 3 -10 -1 -15 -11
-15 -9 0 -20 10 -25 23 -10 28 -8 168 3 186 14 22 26 -8 13 -36z m266 32 c4
-8 2 -17 -3 -20 -15 -9 -12 -77 5 -125 19 -53 19 -60 0 -60 -27 0 -39 42 -36
125 1 44 5 83 7 87 8 13 21 9 27 -7z m1306 -11 c51 -6 61 -10 61 -26 0 -18 -7
-18 -117 -13 -136 8 -143 9 -143 30 0 12 14 15 69 15 37 0 96 -3 130 -6z
m-981 -63 c8 -5 12 -17 10 -27 -2 -14 -13 -20 -41 -22 -39 -3 -55 13 -43 43 6
16 52 20 74 6z m139 -16 c156 -22 153 -21 153 -51 0 -24 -3 -26 -32 -21 -18 4
-79 11 -135 18 l-103 12 0 29 c0 15 2 28 5 28 2 0 53 -7 112 -15z m2921 0 c-2
-3 -45 -14 -94 -24 -49 -10 -81 -19 -71 -20 14 -1 17 -11 17 -65 0 -34 3 -90
6 -122 l6 -59 -181 -60 c-99 -32 -176 -62 -170 -66 17 -10 -182 -62 -248 -64
-49 -1 -64 2 -67 14 -3 9 -6 76 -8 150 l-3 135 105 27 c127 33 96 36 -55 6
l-110 -22 2 -95 c1 -52 5 -132 9 -177 l6 -83 26 5 c16 3 10 -1 -13 -10 -53
-21 -82 -13 -87 23 -6 40 0 51 22 45 19 -5 20 0 20 76 0 80 -4 90 -37 79 -10
-4 -20 46 -22 105 -1 47 -1 47 33 47 29 0 343 57 741 135 116 22 184 30 173
20z m-2205 -17 c70 -6 127 -15 127 -20 0 -4 -9 -8 -21 -8 -14 0 -19 -5 -16
-15 4 -8 3 -16 -1 -18 -4 -2 -74 3 -156 12 -150 16 -186 30 -134 50 31 13 53
13 201 -1z m-475 -18 c17 0 22 -6 22 -25 0 -21 -5 -25 -29 -25 -45 0 -61 10
-61 37 0 21 4 24 23 19 12 -3 32 -6 45 -6z m-399 -16 c39 -8 41 -24 3 -24 -31
0 -81 29 -51 30 9 0 31 -3 48 -6z m2985 -11 c2 -10 8 -62 12 -115 5 -83 4 -98
-8 -98 -18 0 -28 59 -28 161 0 65 12 91 24 52z m-2776 -17 c101 -14 122 -20
109 -32 -5 -6 -237 22 -265 31 -24 8 -2 24 26 19 15 -2 73 -11 130 -18z m1533
14 c53 -15 124 -82 155 -148 34 -70 40 -187 12 -216 -9 -9 -19 -12 -22 -7 -3
5 -15 11 -26 14 -11 3 -18 1 -15 -3 3 -5 1 -11 -5 -15 -16 -10 -12 -36 7 -51
13 -9 22 -9 30 -2 24 20 13 1 -14 -23 -14 -13 -23 -18 -19 -11 6 9 2 11 -16 7
-18 -4 -27 1 -43 24 -18 28 -21 29 -38 13 -10 -9 -16 -24 -14 -34 3 -10 1 -18
-3 -18 -13 0 -25 23 -22 41 2 10 -6 19 -20 23 -29 8 -57 32 -88 76 -21 30 -25
46 -25 108 0 70 1 75 33 103 18 16 39 29 47 29 8 0 15 5 15 10 0 12 -2 12 -34
0 -21 -7 -26 -6 -26 5 0 8 -3 14 -7 14 -5 -1 -14 -1 -22 0 -22 2 8 31 54 52
47 22 57 22 106 9z m509 0 c0 -5 -2 -10 -4 -10 -3 0 -8 5 -11 10 -3 6 -1 10 4
10 6 0 11 -4 11 -10z m-1839 -40 c11 0 19 -6 19 -14 0 -11 -9 -13 -37 -10 -53
8 -63 12 -63 25 0 8 11 9 31 5 17 -3 40 -6 50 -6z m392 -139 c119 -18 158 -31
96 -31 -59 0 -299 33 -299 42 0 13 76 9 203 -11z m40 -41 c20 0 37 -5 37 -11
0 -6 -10 -9 -22 -6 -13 3 -80 13 -150 23 -71 9 -128 20 -128 24 0 4 51 -2 113
-11 61 -10 129 -19 150 -19z"/>
<path d="M3998 723 l-128 -25 0 -38 c0 -78 12 -130 30 -130 15 0 16 10 12 78
l-4 78 93 18 c52 9 106 20 121 23 22 4 27 1 31 -18 3 -19 5 -17 6 9 1 38 9 38
-161 5z"/>
<path d="M4160 640 l-5 -45 -113 -29 c-62 -16 -110 -31 -108 -33 6 -6 219 47
229 57 5 4 7 27 5 51 l-4 44 -4 -45z"/>
<path d="M2233 773 c9 -2 23 -2 30 0 6 3 -1 5 -18 5 -16 0 -22 -2 -12 -5z"/>
<path d="M2977 733 c-14 -13 -6 -33 12 -33 21 0 45 23 34 33 -8 9 -38 9 -46 0z"/>
<path d="M3065 720 c-10 -16 15 -40 41 -40 29 0 32 25 5 40 -25 13 -38 13 -46
0z"/>
<path d="M2970 643 c-45 -8 -49 -26 -5 -19 22 3 48 6 58 6 9 0 17 5 17 10 0
10 -24 11 -70 3z"/>
<path d="M3163 639 c-15 -15 11 -73 30 -66 19 6 19 32 0 56 -14 17 -21 19 -30
10z"/>
<path d="M3005 610 c-4 -6 -11 -7 -17 -4 -5 4 -20 2 -31 -4 -12 -6 -31 -13
-42 -17 -12 -4 -15 -9 -8 -12 7 -2 22 1 35 7 23 11 22 11 -1 -10 -20 -17 -22
-23 -11 -30 12 -7 9 -11 -10 -19 -24 -9 -24 -10 -2 -10 21 -1 33 -21 12 -21
-5 0 -10 -5 -10 -11 0 -6 7 -9 15 -5 8 3 15 1 15 -4 0 -6 -4 -10 -10 -10 -5 0
-10 -5 -10 -11 0 -6 9 -8 20 -4 25 8 26 -3 3 -21 -16 -12 -11 -13 38 -14 31 0
73 7 93 15 41 17 48 30 11 21 -14 -4 -25 -2 -25 3 0 5 12 12 27 16 20 5 24 8
13 15 -12 7 -11 12 5 30 l19 21 -28 -10 c-33 -13 -36 -13 -36 -2 0 5 12 14 28
19 18 7 21 11 9 11 -13 1 -17 8 -15 29 3 24 0 27 -24 27 -16 -1 -28 3 -28 7 0
12 -28 10 -35 -2z m85 -20 c0 -5 -4 -10 -9 -10 -5 0 -16 -3 -25 -6 -9 -3 -16
-1 -16 4 0 9 16 17 43 21 4 0 7 -3 7 -9z"/>
<path d="M3202 508 c-15 -15 -16 -54 -2 -63 13 -8 40 12 40 29 0 7 -6 20 -13
29 -10 14 -15 15 -25 5z"/>
<path d="M3080 413 c0 -6 -10 -14 -22 -18 -16 -4 -19 -8 -10 -12 16 -6 49 23
39 33 -4 4 -7 3 -7 -3z"/>
<path d="M2995 390 c-3 -5 3 -10 14 -10 12 0 21 5 21 10 0 6 -6 10 -14 10 -8
0 -18 -4 -21 -10z"/>
<path d="M3115 380 c-16 -18 -16 -18 4 -13 25 6 35 19 22 27 -4 3 -16 -3 -26
-14z"/>
<path d="M4638 2680 c-59 -10 -142 -55 -175 -95 -15 -16 -37 -54 -51 -83 -22
-49 -24 -63 -20 -160 5 -123 21 -166 89 -232 58 -56 129 -80 239 -80 155 0
244 49 301 166 29 59 33 76 33 153 1 152 -50 243 -167 300 -69 34 -167 46
-249 31z m153 -163 c50 -34 64 -69 64 -162 -1 -118 -36 -171 -122 -181 -51 -7
-101 22 -127 72 -28 52 -29 174 -3 222 38 69 124 92 188 49z"/>
<path d="M5374 2681 c-79 -13 -152 -40 -169 -64 -32 -46 -8 -117 39 -117 10 0
49 10 88 21 91 28 182 23 209 -10 11 -13 19 -38 19 -57 0 -34 0 -34 -47 -34
-104 0 -228 -21 -279 -45 -62 -30 -84 -69 -84 -147 1 -109 84 -188 206 -196
90 -6 128 4 170 43 42 40 44 41 44 20 0 -9 11 -27 25 -40 48 -49 134 -26 151
39 3 14 4 114 2 223 -3 180 -5 202 -25 239 -28 53 -83 101 -130 113 -57 15
-162 21 -219 12z m183 -408 c-10 -95 -120 -148 -191 -92 -32 25 -36 77 -7 103
20 18 89 32 165 35 l39 1 -6 -47z"/>
<path d="M7728 2680 c-130 -20 -195 -73 -172 -138 15 -42 52 -49 128 -24 91
30 176 30 210 0 14 -13 28 -39 31 -58 l6 -36 -140 -11 c-199 -15 -265 -51
-278 -151 -9 -64 5 -109 45 -154 52 -57 101 -78 190 -78 82 0 116 13 156 60
23 28 26 29 26 10 0 -64 106 -95 156 -45 l25 25 -3 224 -3 223 -30 49 c-56 89
-187 129 -347 104z m194 -398 c-6 -77 -55 -122 -132 -122 -74 0 -120 80 -71
124 21 19 101 35 166 32 39 -1 40 -2 37 -34z"/>
<path d="M8595 2681 c-47 -12 -112 -49 -128 -72 -15 -20 -15 -20 -22 10 -9 42
-40 61 -96 61 -39 0 -51 -5 -68 -26 -20 -26 -21 -39 -21 -301 l0 -274 25 -24
c34 -35 106 -35 140 0 25 24 25 27 25 187 0 90 5 179 10 199 19 67 88 105 156
87 56 -14 59 -23 64 -245 l5 -205 28 -24 c37 -31 108 -33 137 -4 30 30 32 52
28 277 -3 179 -6 213 -22 243 -23 45 -54 78 -87 95 -32 17 -135 26 -174 16z"/>
<path d="M9744 2681 c-79 -13 -152 -40 -169 -64 -30 -43 -7 -117 37 -117 11 0
51 10 90 21 91 28 182 23 209 -10 11 -13 19 -38 19 -57 0 -34 0 -34 -47 -34
-88 0 -226 -20 -267 -39 -69 -31 -90 -62 -94 -139 -3 -60 -1 -72 26 -113 42
-65 112 -99 203 -99 83 0 113 11 156 56 29 31 33 33 33 14 0 -11 11 -32 25
-45 30 -31 92 -34 126 -6 24 19 24 20 24 243 0 210 -1 225 -22 264 -28 53 -83
101 -130 113 -57 15 -162 21 -219 12z m183 -408 c-10 -95 -120 -148 -191 -92
-32 25 -36 77 -7 103 20 18 89 32 165 35 l39 1 -6 -47z"/>
<path d="M10437 2676 c-146 -41 -228 -196 -197 -373 28 -160 118 -242 268
-243 84 0 132 17 181 63 l34 32 -6 -64 c-6 -73 -26 -107 -78 -134 -44 -24
-161 -18 -239 12 -69 27 -76 26 -105 -4 -31 -30 -32 -73 -5 -103 55 -59 311
-88 427 -49 69 24 135 84 164 149 23 51 24 63 27 342 2 158 1 299 -2 312 -11
44 -41 64 -96 64 -55 0 -90 -23 -90 -60 0 -26 -12 -25 -36 1 -50 55 -160 80
-247 55z m203 -154 c95 -51 100 -226 9 -294 -66 -50 -158 -26 -196 52 -76 149
52 314 187 242z"/>
<path d="M11273 2680 c-86 -18 -167 -81 -211 -164 -25 -46 -27 -61 -27 -161 0
-105 2 -113 31 -165 37 -66 107 -122 181 -145 43 -14 78 -16 161 -13 156 8
232 47 232 120 0 61 -37 69 -172 33 -115 -30 -202 -2 -238 78 l-19 42 207 5
c114 3 213 9 220 13 17 11 15 102 -3 165 -34 114 -129 187 -255 196 -36 3 -84
1 -107 -4z m160 -142 c18 -9 56 -81 57 -105 0 -10 -34 -13 -139 -13 l-140 0
11 33 c29 88 130 129 211 85z"/>
<path d="M2764 2476 c15 -61 25 -178 26 -292 0 -100 3 -123 15 -128 25 -9 28
15 22 172 -5 153 -27 260 -56 270 -10 3 -12 -2 -7 -22z"/>
<path d="M3399 2323 c-13 -16 -12 -17 4 -4 9 7 17 15 17 17 0 8 -8 3 -21 -13z"/>
<path d="M2630 2070 c-13 -9 -13 -10 0 -10 8 0 22 5 30 10 13 9 13 10 0 10 -8
0 -22 -5 -30 -10z"/>
<path d="M3210 2033 c0 -5 -9 -20 -20 -33 -11 -13 -20 -28 -19 -34 0 -6 3 -6
6 2 2 6 11 12 18 12 12 0 28 50 19 59 -2 2 -4 0 -4 -6z"/>
</g>
</svg>
