<svg xmlns="http://www.w3.org/2000/svg" xml:space="preserve" width="1500" height="286" data-id="lg_jo1sUYH2wmrMi2OkOU" data-version="1" viewBox="0 0 1500 286"><g data-padding="20"><g transform="translate(281.099 200.57)scale(1.07022)"><filter id="a" width="140%" height="162%" x="-20%" y="-31%"><feGaussianBlur in="SourceAlpha"/><feOffset dy="17" result="oBlur"/><feFlood flood-color="#bd4ced" flood-opacity="1"/><feComposite in2="oBlur" operator="in"/><feMerge><feMergeNode/><feMergeNode in="SourceGraphic"/></feMerge></filter><g filter="url(#a)"><rect width="495.824" height="150.29" x="192.466" y="-75.097" fill="none" rx="0" ry="0" transform="translate(-5.55 -.37)"/><path fill="#4cc0ff" stroke="#000" stroke-width="9.97" d="M237.288 46.868q-2.53 0-4.12-1.2-1.6-1.19-2.53-3.59l-36.57-83.65q-.94-2.26-.54-3.79t1.8-2.46q1.4-.94 3.26-.94 2.52 0 3.79 1.14 1.26 1.13 2.06 3.25l35.11 81.53h-4.25l34.97-81.66q.94-1.99 2.27-3.12 1.33-1.14 3.72-1.14 1.86 0 3.12.94 1.27.93 1.6 2.52.33 1.6-.6 3.73l-36.57 83.65q-.93 2.4-2.46 3.59-1.53 1.2-4.06 1.2Zm76.2.27q-6.65 0-11.9-2.6-5.26-2.59-8.32-7.11t-3.06-10.11q0-7.18 3.66-11.3 3.66-4.13 12.1-5.86 8.45-1.73 23.08-1.73h5.99v7.05h-5.86q-10.77 0-16.95 1-6.19 1-8.65 3.39-2.46 2.4-2.46 6.79 0 5.45 3.79 8.91 3.79 3.45 10.31 3.45 5.32 0 9.37-2.52 4.06-2.53 6.39-6.92t2.33-10.11V4.308q0-8.24-3.33-11.9-3.32-3.66-10.9-3.66-4.66 0-9.31 1.2-4.66 1.19-9.85 3.85-1.86.94-3.19.6-1.33-.33-2.13-1.39-.79-1.07-.93-2.46-.13-1.4.6-2.73t2.33-2.13q5.85-2.92 11.57-4.25t10.91-1.33q8.37 0 13.83 2.72 5.45 2.73 8.11 8.25t2.66 14.16v36.05q0 2.66-1.26 4.12-1.27 1.46-3.66 1.46-2.53 0-3.86-1.46t-1.33-4.12v-10.38h1.2q-1.06 5.06-4.06 8.65-2.99 3.59-7.38 5.58-4.39 2-9.84 2Zm55.47-.27q-2.66 0-3.99-1.46t-1.33-4.12v-55.47q0-2.66 1.33-4.05 1.33-1.4 3.86-1.4 2.52 0 3.92 1.4 1.4 1.39 1.4 4.05v11.44l-1.47-1.59q2.8-7.72 9.11-11.64 6.32-3.92 14.57-3.92 7.71 0 12.83 2.79t7.65 8.44q2.53 5.66 2.53 14.3v35.65q0 2.66-1.4 4.12t-3.92 1.46q-2.66 0-4.06-1.46t-1.4-4.12V6.308q0-9.05-3.52-13.24t-11.24-4.19q-8.91 0-14.16 5.52-5.26 5.52-5.26 14.7v32.19q0 5.58-5.45 5.58Zm96.16.27q-7.58 0-12.7-2.73t-7.65-7.98-2.53-12.83v-33.92h-8.91q-2.26 0-3.46-1.13-1.19-1.13-1.19-3.12 0-2 1.19-3.06 1.2-1.07 3.46-1.07h8.91v-15.29q0-2.66 1.47-4.06 1.46-1.4 3.99-1.4 2.52 0 3.92 1.4t1.4 4.06v15.29h16.75q2.27 0 3.46 1.07 1.2 1.06 1.2 3.06 0 1.99-1.2 3.12-1.19 1.13-3.46 1.13h-16.75v32.85q0 7.58 3.19 11.51 3.19 3.92 10.37 3.92 2.53 0 4.32-.53 1.8-.53 3-.53 1.19-.14 1.99.79.8.94.8 3.2 0 1.59-.6 2.92t-2.06 1.86q-1.6.54-4.19 1-2.59.47-4.72.47Zm40.96 0q-6.65 0-11.9-2.6-5.25-2.59-8.31-7.11t-3.06-10.11q0-7.18 3.66-11.3 3.65-4.13 12.1-5.86 8.44-1.73 23.07-1.73h5.99v7.05h-5.85q-10.78 0-16.96 1t-8.65 3.39q-2.46 2.4-2.46 6.79 0 5.45 3.79 8.91 3.8 3.45 10.31 3.45 5.32 0 9.38-2.52 4.06-2.53 6.38-6.92 2.33-4.39 2.33-10.11V4.308q0-8.24-3.32-11.9-3.33-3.66-10.91-3.66-4.66 0-9.31 1.2-4.66 1.19-9.84 3.85-1.86.94-3.19.6-1.33-.33-2.13-1.39-.8-1.07-.93-2.46-.14-1.4.59-2.73.74-1.33 2.33-2.13 5.85-2.92 11.57-4.25t10.91-1.33q8.38 0 13.83 2.72 5.45 2.73 8.11 8.25t2.66 14.16v36.05q0 2.66-1.26 4.12t-3.66 1.46q-2.52 0-3.85-1.46t-1.33-4.12v-10.38h1.19q-1.06 5.06-4.05 8.65-3 3.59-7.38 5.58-4.39 2-9.85 2Zm78.74 23.94q-7.05 0-13.77-1.66-6.71-1.67-12.17-5.26-1.59-.93-2.06-2.26-.46-1.33-.2-2.59.27-1.27 1.2-2.26.93-1 2.19-1.27 1.27-.26 2.6.4 5.85 3.59 11.17 4.92t10.51 1.33q9.44 0 14.29-5.05 4.86-5.06 4.86-14.63v-15.03h1.33q-2 7.71-8.45 12.24-6.45 4.52-15.09 4.52-8.91 0-15.43-4.06t-10.04-11.37q-3.53-7.32-3.53-16.89 0-7.18 2-13.1 1.99-5.92 5.78-10.11 3.8-4.19 9.18-6.52 5.39-2.32 12.04-2.32 8.78 0 15.16 4.45 6.38 4.46 8.25 12.04l-1.33 1.59v-12.37q0-2.66 1.39-4.05 1.4-1.4 3.93-1.4 2.66 0 3.99 1.4 1.33 1.39 1.33 4.05v55.47q0 14.76-7.39 22.27-7.38 7.52-21.74 7.52Zm-1.6-35.38q6.25 0 10.78-2.86 4.52-2.86 6.98-8.18t2.46-12.5q0-10.77-5.45-17.09-5.46-6.32-14.77-6.32-6.11 0-10.64 2.86-4.52 2.86-6.98 8.11-2.46 5.26-2.46 12.44 0 10.77 5.45 17.16 5.46 6.38 14.63 6.38Zm80.07 11.44q-10.24 0-17.62-4.06t-11.44-11.5q-4.06-7.45-4.06-17.83 0-10.1 3.99-17.62 3.99-7.51 10.97-11.77 6.99-4.25 16.16-4.25 6.52 0 11.71 2.19t8.84 6.32q3.66 4.12 5.59 9.97t1.93 13.17q0 2.13-1.2 3.13-1.2.99-3.46.99h-46.28v-7.05h43.76l-2.13 1.73q0-7.18-2.13-12.17-2.13-4.98-6.19-7.64-4.05-2.66-10.17-2.66-6.78 0-11.5 3.12-4.73 3.13-7.12 8.65t-2.39 12.83v.8q0 12.23 5.91 18.62 5.92 6.38 16.83 6.38 4.52 0 8.98-1.19 4.45-1.2 8.71-3.99 1.86-1.2 3.39-1.13 1.53.06 2.46.93.93.86 1.26 2.12.34 1.27-.26 2.73t-2.33 2.53q-4.39 3.19-10.37 4.92-5.99 1.73-11.84 1.73Z"/></g></g><g transform="translate(275.17 85.724)scale(1.07022)"><filter id="b" width="140%" height="162%" x="-20%" y="-31%"><feGaussianBlur in="SourceAlpha"/><feOffset dy="17" result="oBlur"/><feFlood flood-color="#ed4ce4" flood-opacity="1"/><feComposite in2="oBlur" operator="in"/><feMerge><feMergeNode/><feMergeNode in="SourceGraphic"/></feMerge></filter><g filter="url(#b)"><rect width="293.531" height="150.29" x="293.613" y="-75.097" fill="none" rx="0" ry="0"/><path fill="#4cc0ff" stroke="#000" stroke-width="9.97" d="M364.198 46.318h-48.95q-2.66 0-4.12-1.53t-1.46-4.19v-82.99q0-2.79 1.39-4.26 1.4-1.46 4.06-1.46t4.06 1.46q1.39 1.47 1.39 4.26v79.13h43.63q2.39 0 3.72 1.27 1.33 1.26 1.33 3.52t-1.33 3.53q-1.33 1.26-3.72 1.26Zm43.1 1.19q-9.44 0-16.36-4.13-6.92-4.12-10.71-11.63-3.79-7.52-3.79-17.76 0-7.71 2.13-13.9 2.13-6.18 6.25-10.57t9.78-6.72q5.65-2.32 12.7-2.32 9.44 0 16.36 4.12 6.91 4.12 10.7 11.64 3.79 7.51 3.79 17.75 0 7.72-2.12 13.83-2.13 6.12-6.25 10.58-4.13 4.45-9.78 6.78t-12.7 2.33Zm0-8.65q5.98 0 10.51-2.92 4.52-2.93 6.98-8.52 2.46-5.58 2.46-13.43 0-12.1-5.39-18.49-5.38-6.38-14.56-6.38-6.12 0-10.58 2.86-4.45 2.86-6.91 8.38t-2.46 13.63q0 11.97 5.45 18.42t14.5 6.45Zm67.43 8.65q-6.65 0-11.9-2.6-5.26-2.59-8.32-7.11t-3.06-10.11q0-7.18 3.66-11.3 3.66-4.13 12.1-5.86 8.45-1.73 23.08-1.73h5.99v7.05h-5.86q-10.77 0-16.95 1-6.19 1-8.65 3.39-2.46 2.4-2.46 6.79 0 5.45 3.79 8.91 3.79 3.45 10.31 3.45 5.32 0 9.37-2.52 4.06-2.53 6.39-6.92t2.33-10.11V4.678q0-8.24-3.33-11.9-3.32-3.66-10.9-3.66-4.66 0-9.31 1.2-4.66 1.19-9.85 3.85-1.86.94-3.19.6-1.33-.33-2.13-1.39-.79-1.07-.93-2.46-.13-1.4.6-2.73t2.33-2.13q5.85-2.92 11.57-4.25t10.91-1.33q8.37 0 13.83 2.72 5.45 2.73 8.11 8.25t2.66 14.16v36.05q0 2.66-1.26 4.12-1.27 1.46-3.66 1.46-2.53 0-3.86-1.46t-1.33-4.12v-10.38h1.2q-1.06 5.06-4.06 8.65-2.99 3.59-7.38 5.58-4.39 2-9.84 2Zm74.75 0q-8.65 0-15.1-4.13-6.45-4.12-9.98-11.63-3.52-7.52-3.52-17.76 0-10.37 3.52-17.89 3.53-7.51 9.98-11.57 6.45-4.05 15.1-4.05 8.77 0 15.02 4.38 6.26 4.39 8.38 11.84h-1.46v-39.63q0-2.66 1.4-4.06 1.39-1.4 4.05-1.4 2.53 0 3.93 1.4 1.39 1.4 1.39 4.06v84.59q0 2.66-1.33 4.12t-3.99 1.46q-2.52 0-3.92-1.46t-1.4-4.12v-12.64l1.47 1.86q-2.13 7.58-8.45 12.11-6.32 4.52-15.09 4.52Zm2.26-8.65q5.98 0 10.5-2.92 4.53-2.93 6.99-8.52 2.46-5.58 2.46-13.43 0-12.1-5.39-18.49-5.39-6.38-14.56-6.38-6.12 0-10.58 2.86-4.45 2.86-6.91 8.38t-2.46 13.63q0 11.97 5.45 18.42t14.5 6.45Z"/></g></g><path fill="transparent" stroke="transparent" d="M471 0h558v286H471z"/></g></svg>