<?xml version="1.0" encoding="utf-8"?>
<svg version="1.1" id="a" xmlns="http://www.w3.org/2000/svg" xmlns:xlink="http://www.w3.org/1999/xlink" x="0px" y="0px"
	 viewBox="0 0 1225.6 223.3" style="enable-background:new 0 0 1225.6 223.3;" xml:space="preserve">
<style type="text/css">
	.st0{fill:#33CC33;}
</style>
<g>
	<g>
		<path class="st0" d="M492.5,80.6L519.3,97c-14.2,16.5-40.4,28.9-70.5,28.9c-41.2,0-64.2-20.8-54.2-57.9
			c10-37.1,44.1-57.9,86.7-57.9c28.7,0,48.1,12.6,53.2,28.7l-35.8,16.3c-3.9-10.4-12.8-15.4-25.9-15.4c-19.3,0-35.1,10.2-39.9,28.3
			s5.5,28.3,24.7,28.3C470.7,96.2,482.4,91.6,492.5,80.6L492.5,80.6z"/>
		<path class="st0" d="M535.2,68c9.9-37.1,44.4-57.9,87.9-57.9c43.5,0,67,20.8,57,57.9c-10,37.1-44.4,57.9-88.1,57.9
			S525.2,105.1,535.2,68L535.2,68z M641.6,68c4.8-17.9-5.3-28.3-26.4-28.3S578.4,50.1,573.6,68c-4.8,17.9,5.3,28.3,26.4,28.3
			S636.8,85.8,641.6,68L641.6,68z"/>
		<path class="st0" d="M729.3,13.6l15.6,43.2l38.6-43.2h41.6l-69.3,72.5l-9.7,36.2h-37.9l9.7-36.2l-30.4-72.5L729.3,13.6L729.3,13.6
			z"/>
		<path class="st0" d="M805.7,68c9.9-37.1,44.4-57.9,87.9-57.9s67,20.8,57,57.9c-9.9,37.1-44.4,57.9-88.1,57.9S795.8,105.1,805.7,68
			L805.7,68z M912.1,68c4.8-17.9-5.3-28.3-26.4-28.3S848.9,50.1,844.1,68c-4.8,17.9,5.3,28.3,26.4,28.3S907.4,85.8,912.1,68
			L912.1,68z"/>
		<path class="st0" d="M1086.8,42.4h-43l-21.4,80h-37.9l21.4-80H963l7.7-28.7h123.8L1086.8,42.4z"/>
		<path class="st0" d="M1205.5,95l-7.3,27.3h-119.4l29.1-108.7h117.8l-7.3,27.3h-80.6l-3.7,13.8h65.7l-6.7,25.2h-65.7l-4,15.1
			H1205.5L1205.5,95z"/>
	</g>
	<g>
		<path class="st0" d="M548.1,210.2l-3.1,11.4h-54l15.5-57.7h13.2l-12.4,46.3H548.1z"/>
		<path class="st0" d="M569.5,192.7c5.2-19.3,22.4-30.6,44.9-30.6s33.6,11.4,28.5,30.6c-5.2,19.3-22.4,30.6-44.9,30.6
			S564.3,212,569.5,192.7z M629.4,192.7c3.3-12.4-3.8-19.3-18.1-19.3s-25.1,6.9-28.4,19.3c-3.3,12.4,3.7,19.3,18.1,19.3
			C615.3,212,626.1,205.1,629.4,192.7z"/>
		<path class="st0" d="M729.7,209.8c-7.9,7.8-20.8,13.5-36.4,13.5c-23.2,0-34.2-11.4-29-30.6c5.2-19.3,22.3-30.6,45.4-30.6
			c14.2,0,22.8,5.3,27.1,11l-12.3,7.5c-3.7-4.9-8.9-7.2-17.7-7.2c-15.1,0-25.7,6.6-29.1,19.4c-3.4,12.8,3.8,19.4,19.2,19.4
			c8.7,0,16.2-1.9,21.7-6.8l1.5-5.6h-21.8l2.9-10.7h34.1L729.7,209.8L729.7,209.8z"/>
		<path class="st0" d="M756.6,221.5l15.4-57.7h13.2l-15.4,57.7H756.6z"/>
		<path class="st0" d="M868.4,204.1c-3.1,11.4-16,19.3-36.4,19.3c-14.6,0-25.3-4.1-32.2-11.6l10-9c5.3,6.5,13.7,9.6,25.4,9.6
			s18.2-2.2,19.5-7s-4.3-6.1-17.2-7.2c-16.1-1.4-30.4-5-27.1-17.4c3.2-12,17.8-18.6,35.6-18.6c12.6,0,22.6,3.1,28.4,8.8l-9.7,9.1
			c-5-4.9-12.3-6.8-21.7-6.9c-7.8-0.1-17.7,1.3-19.2,6.6c-1.3,4.9,6.8,5.4,18,6.3C859.9,187.5,871.8,191.4,868.4,204.1L868.4,204.1z
			"/>
		<path class="st0" d="M958.9,175.2h-25.2l-12.4,46.3h-13.2l12.4-46.3h-25l3.1-11.4H962L958.9,175.2z"/>
		<path class="st0" d="M973.6,221.5l15.4-57.7h13.2l-15.4,57.7H973.6z"/>
		<path class="st0" d="M1076.3,202.6l10.4,6c-7.6,8.2-20.5,14.7-35.6,14.7c-21.7,0-32.7-11.5-27.5-30.6s22.3-30.6,44.5-30.6
			c14.5,0,23.8,6.7,27,14.7l-13.7,6c-2.4-6.4-7.9-9.3-16.4-9.3c-13.7,0-24.5,6.6-27.9,19.3s3.9,19.3,17.6,19.3
			C1063.2,212,1070.2,209.2,1076.3,202.6L1076.3,202.6z"/>
		<path class="st0" d="M1174.7,204.1c-3.1,11.4-16,19.3-36.4,19.3c-14.6,0-25.3-4.1-32.2-11.6l10-9c5.3,6.5,13.7,9.6,25.4,9.6
			s18.2-2.2,19.5-7s-4.3-6.1-17.2-7.2c-16.1-1.4-30.4-5-27.1-17.4c3.2-12,17.8-18.6,35.6-18.6c12.6,0,22.6,3.1,28.4,8.8l-9.7,9.1
			c-5-4.9-12.3-6.8-21.7-6.9c-7.8-0.1-17.7,1.3-19.2,6.6c-1.3,4.9,6.8,5.4,18,6.3C1166.2,187.5,1178.1,191.4,1174.7,204.1
			L1174.7,204.1z"/>
	</g>
	<polygon class="st0" points="380.1,178.5 201.8,0 201.7,91.3 0,91.1 43.4,134.6 231.6,134.7 231.6,91.3 318.4,178.2 148.3,178.1 
		191.7,221.5 336.8,221.6 	"/>
</g>
</svg>
